<svg preserveAspectRatio="none" width="100%" height="100%" overflow="visible" style="display: block;" viewBox="0 0 15.3672 15.2881" fill="none" xmlns="http://www.w3.org/2000/svg">
<g id="Group 1000004712">
<path id="Vector 101" d="M4.60109 4.11865L6.83937 3.11865L8.52326 3.19754L10.5761 3.96077L11.9973 6.38208L12.1552 8.61915L10.155 11.4615L8.2864 12.0406L6.1546 11.9353L4.54917 11.1984L2.91602 8.90865L3.1275 6.03993L4.60109 4.11865Z" fill="#D9D9D9"/>
<path id="Vector 102" d="M2.23047 2.15723L3.08789 4.60156L4.70061 3.1084L2.23047 2.15723Z" fill="#D9D9D9"/>
<path id="Vector 108" d="M2.3418 13.1396L4.71264 12.0961L3.09942 10.6034L2.3418 13.1396Z" fill="#D9D9D9"/>
<path id="Vector 107" d="M0 7.83789L2.40662 8.79608L2.33928 6.5993L0 7.83789Z" fill="#D9D9D9"/>
<path id="Vector 109" d="M7.57617 15.2881L8.65659 12.9338L6.45925 12.8883L7.57617 15.2881Z" fill="#D9D9D9"/>
<path id="Vector 103" d="M7.67188 0L6.6184 2.36646L8.81612 2.38685L7.67188 0Z" fill="#D9D9D9"/>
<path id="Vector 104" d="M13.0742 2.19678L10.6609 3.13791L12.2087 4.69822L13.0742 2.19678Z" fill="#D9D9D9"/>
<path id="Vector 106" d="M13.1016 13.1035L12.2083 10.6721L10.6177 12.1888L13.1016 13.1035Z" fill="#D9D9D9"/>
<path id="Vector 105" d="M15.3672 7.57959L12.9986 6.5309L12.9827 8.72865L15.3672 7.57959Z" fill="#D9D9D9"/>
</g>
</svg>
