<svg preserveAspectRatio="none" width="100%" height="100%" overflow="visible" style="display: block;" viewBox="0 0 17.4655 18.877" fill="none" xmlns="http://www.w3.org/2000/svg">
<g id="Group 1000004711">
<path id="Vector 93" d="M0.586834 18.0561L1.8173 18.8769L4.04419 17.763L7.32717 15.9457L12.4275 13.6593L12.6034 11.9592L10.8446 8.50036L7.03404 5.51051L4.45457 4.86558L0 16.4734L0.586834 18.0561Z" fill="#D9D9D9"/>
<path id="Vector 94" d="M10.791 7.43441C10.8527 7.21718 11.024 6.49078 11.1016 6.15463L13.622 6.54228L13.8935 4.64172L15.6001 4.64151L16.1431 2.62437" stroke="#BBBBBB"/>
<path id="Vector 95" d="M11.877 9.52858C12.7044 8.99861 14.9566 8.08604 17.3457 8.67555" stroke="#BBBBBB"/>
<path id="Vector 96" d="M7.26172 4.95201C7.48091 3.56863 7.58584 0.739815 6.25195 0.491559" stroke="#BBBBBB"/>
<path id="Vector 97" d="M13.8926 12.0887L14.459 13.0682" stroke="#BBBBBB"/>
<path id="Vector 99" d="M3.96875 2.41197L4.12635 3.53241" stroke="#BBBBBB"/>
<path id="Vector 100" d="M10.5977 1.9066L10.0895 2.91755" stroke="#BBBBBB"/>
<path id="Vector 98" d="M5.61328 6.30894L5.375 6.03746L7.03771 8.75116L8.73374 10.3793L11.0064 12.4146" stroke="#BBBBBB"/>
</g>
</svg>
