<svg preserveAspectRatio="none" width="100%" height="100%" overflow="visible" style="display: block;" viewBox="0 0 12.7777 12.7905" fill="none" xmlns="http://www.w3.org/2000/svg">
<path id="Vector" d="M5.06756 10.0085L3.92797 11.1159C3.62915 11.4147 3.22386 11.5826 2.80127 11.5826C2.37867 11.5826 1.97338 11.4147 1.67456 11.1159C1.37574 10.8171 1.20787 10.4118 1.20787 9.98919C1.20787 9.56659 1.37574 9.1613 1.67456 8.86248L4.59756 5.93305C4.88446 5.64522 5.27102 5.47868 5.67727 5.4679C6.08353 5.45711 6.47838 5.6029 6.78015 5.8751L6.85741 5.93949C6.9795 6.05901 7.14407 6.12515 7.31492 6.12334C7.48577 6.12153 7.6489 6.05192 7.76843 5.92983C7.88796 5.80774 7.95409 5.64317 7.95228 5.47232C7.95047 5.30147 7.88086 5.13833 7.75877 5.01881C7.72224 4.97198 7.68357 4.92686 7.64288 4.8836C7.09328 4.40544 6.38248 4.15404 5.65445 4.18034C4.92643 4.20664 4.23562 4.50867 3.72195 5.02525L0.760321 7.95468C0.257074 8.50245 -0.0150974 9.22346 0.000646882 9.96714C0.0163911 10.7108 0.318833 11.4197 0.844812 11.9456C1.37079 12.4716 2.07964 12.7741 2.82332 12.7898C3.567 12.8056 4.28801 12.5334 4.83578 12.0301L5.94961 10.9421C6.05958 10.8221 6.12004 10.6649 6.11881 10.5022C6.11758 10.3394 6.05476 10.1832 5.94298 10.0648C5.83121 9.94655 5.67877 9.87496 5.51635 9.86451C5.35393 9.85406 5.19358 9.90551 5.06756 10.0085ZM11.9501 0.840337C11.4085 0.302098 10.676 0 9.91239 0C9.14882 0 8.41627 0.302098 7.87466 0.840337L6.76084 1.92841C6.65086 2.04839 6.5904 2.20557 6.59163 2.36832C6.59286 2.53107 6.65568 2.68732 6.76746 2.80562C6.87924 2.92393 7.03167 2.99551 7.19409 3.00596C7.35651 3.01642 7.51686 2.96497 7.64288 2.86197L8.75671 1.75458C9.05554 1.45576 9.46082 1.28788 9.88342 1.28788C10.306 1.28788 10.7113 1.45576 11.0101 1.75458C11.3089 2.0534 11.4768 2.45869 11.4768 2.88128C11.4768 3.30388 11.3089 3.70917 11.0101 4.00799L8.08713 6.93743C7.80023 7.22526 7.41367 7.39179 7.00741 7.40258C6.60116 7.41336 6.20631 7.26757 5.90454 6.99537L5.82728 6.93099C5.70519 6.81146 5.54062 6.74533 5.36977 6.74714C5.19892 6.74895 5.03578 6.81856 4.91626 6.94064C4.79673 7.06273 4.73059 7.22731 4.73241 7.39816C4.73422 7.56901 4.80382 7.73214 4.92591 7.85167C4.9729 7.89927 5.02233 7.9444 5.074 7.98687C5.62426 8.4636 6.33476 8.71405 7.06234 8.68776C7.78992 8.66148 8.4805 8.36041 8.99493 7.84523L11.9244 4.91579C12.466 4.3776 12.7728 3.64695 12.7776 2.88338C12.7824 2.1198 12.485 1.38534 11.9501 0.840337Z" fill="#787878"/>
</svg>
