<svg preserveAspectRatio="none" width="100%" height="100%" overflow="visible" style="display: block;" viewBox="0 0 10.8535 10.8535" fill="none" xmlns="http://www.w3.org/2000/svg">
<path id="Vector" d="M5.42676 6.58226L1.38248 10.6265C1.23117 10.7779 1.03858 10.8535 0.804728 10.8535C0.570876 10.8535 0.378291 10.7779 0.226974 10.6265C0.0756579 10.4752 0 10.2826 0 10.0488C0 9.81493 0.0756579 9.62235 0.226974 9.47103L4.27125 5.42676L0.226974 1.38248C0.0756579 1.23117 0 1.03858 0 0.804728C0 0.570876 0.0756579 0.378291 0.226974 0.226974C0.378291 0.0756579 0.570876 0 0.804728 0C1.03858 0 1.23117 0.0756579 1.38248 0.226974L5.42676 4.27125L9.47103 0.226974C9.62235 0.0756579 9.81493 0 10.0488 0C10.2826 0 10.4752 0.0756579 10.6265 0.226974C10.7779 0.378291 10.8535 0.570876 10.8535 0.804728C10.8535 1.03858 10.7779 1.23117 10.6265 1.38248L6.58226 5.42676L10.6265 9.47103C10.7779 9.62235 10.8535 9.81493 10.8535 10.0488C10.8535 10.2826 10.7779 10.4752 10.6265 10.6265C10.4752 10.7779 10.2826 10.8535 10.0488 10.8535C9.81493 10.8535 9.62235 10.7779 9.47103 10.6265L5.42676 6.58226Z" fill="white"/>
</svg>
