<svg preserveAspectRatio="none" width="100%" height="100%" overflow="visible" style="display: block;" viewBox="0 0 17.0124 21.4806" fill="none" xmlns="http://www.w3.org/2000/svg">
<g id="Group 1000004729">
<path id="Vector" d="M2.1617 1.0686C1.83333 1.51105 1.6582 2.03983 1.6582 2.60099L1.6582 10.9644C1.6582 11.5255 1.83333 12.0543 2.1617 12.4967L7.79872 6.93914C7.88628 6.85281 7.88628 6.71253 7.79872 6.6154L2.1617 1.0686Z" fill="#AFAFAF"/>
<path id="Vector_2" d="M14.3336 0.496406C13.8849 0.172663 13.3485 0 12.7794 0L4.29647 0C3.7273 0 3.19096 0.172663 2.74219 0.496406L8.3792 6.0432C8.46677 6.12954 8.60906 6.12954 8.70757 6.0432L14.3336 0.496406Z" fill="#AFAFAF"/>
<path id="Vector_3" d="M9.19891 19.5758L10.3263 20.6441L16.1494 14.8599L15.1534 13.8887C15.0111 13.7484 14.7812 13.7484 14.6389 13.8887L9.19891 19.0578C9.04567 19.1981 9.04567 19.4355 9.19891 19.5865V19.5758Z" fill="#AFAFAF"/>
<path id="Vector_4" d="M10.3164 20.6546C10.3711 20.7085 10.4368 20.7625 10.5025 20.8165C11.6189 21.7337 13.2936 21.6798 14.3335 20.6438L16.1833 18.82C17.2888 17.7301 17.2888 15.9495 16.1833 14.8596C16.0957 14.7733 10.3164 20.6438 10.3164 20.6438V20.6546Z" fill="#AFAFAF"/>
<path id="Vector_5" d="M8.69632 7.5219C8.60876 7.43557 8.46647 7.43557 8.36795 7.5219L2.43541 13.3709H2.42446L0.837343 14.9464C-0.279114 16.0471 -0.279114 17.8277 0.837343 18.9285L2.58865 20.6551C3.7051 21.7558 5.52208 21.7558 6.6276 20.6551L8.17093 19.1335L14.1473 13.2414C14.2348 13.155 14.2348 13.0147 14.1473 12.9176L8.67443 7.5219H8.69632Z" fill="#AFAFAF"/>
<path id="Vector_6" d="M14.9144 12.4967C15.2428 12.0543 15.4179 11.5255 15.4179 10.9644V2.60099C15.4179 2.03983 15.2428 1.51105 14.9144 1.0686L9.28833 6.6154C9.20076 6.70173 9.20076 6.84202 9.28833 6.93914L11.1381 8.7629L14.9253 12.4967H14.9144Z" fill="#AFAFAF"/>
</g>
</svg>
