<svg preserveAspectRatio="none" width="100%" height="100%" overflow="visible" style="display: block;" viewBox="0 0 17.9529 19.636" fill="none" xmlns="http://www.w3.org/2000/svg">
<path id="Vector" d="M0 17.3919V7.29337C0 6.93805 0.0796658 6.60144 0.238998 6.28352C0.39833 5.9656 0.61788 5.70379 0.897646 5.49808L7.62999 0.448823C8.02271 0.149608 8.47153 0 8.97646 0C9.48138 0 9.9302 0.149608 10.3229 0.448823L17.0553 5.49808C17.3358 5.70379 17.5557 5.9656 17.715 6.28352C17.8744 6.60144 17.9537 6.93805 17.9529 7.29337V17.3919C17.9529 18.009 17.733 18.5375 17.2931 18.9773C16.8533 19.4172 16.3252 19.6367 15.7088 19.636H12.3426C12.0247 19.636 11.7584 19.5283 11.5437 19.3128C11.329 19.0974 11.2213 18.8311 11.2206 18.5139V12.9037C11.2206 12.5857 11.1129 12.3194 10.8974 12.1048C10.682 11.8901 10.4157 11.7823 10.0985 11.7816H7.8544C7.53648 11.7816 7.27018 11.8893 7.0555 12.1048C6.84081 12.3202 6.73309 12.5865 6.73234 12.9037V18.5139C6.73234 18.8319 6.62462 19.0985 6.40919 19.314C6.19375 19.5294 5.92745 19.6367 5.61029 19.636H2.24411C1.62698 19.636 1.09887 19.4164 0.659769 18.9773C0.220671 18.5383 0.000748038 18.0098 0 17.3919Z" fill="#6A6A6A"/>
</svg>
