<svg preserveAspectRatio="none" width="100%" height="100%" overflow="visible" style="display: block;" viewBox="0 0 19 19" fill="none" xmlns="http://www.w3.org/2000/svg">
<g id="carbon:face-add">
<path id="Vector" d="M9.5 13.0625C8.88491 13.0616 8.28054 12.9014 7.74573 12.5976C7.21091 12.2937 6.76387 11.8566 6.44813 11.3287L5.43281 11.9225C5.85552 12.6232 6.45208 13.2028 7.16467 13.6051C7.87725 14.0074 8.68169 14.2188 9.5 14.2188C10.3183 14.2188 11.1228 14.0074 11.8353 13.6051C12.5479 13.2028 13.1445 12.6232 13.5672 11.9225L12.5519 11.3287C12.2361 11.8566 11.7891 12.2937 11.2543 12.5976C10.7195 12.9014 10.1151 13.0616 9.5 13.0625ZM17.8125 2.375H15.4375V0H14.25V2.375H11.875V3.5625H14.25V5.9375H15.4375V3.5625H17.8125V2.375ZM6.82813 6.53125C6.53454 6.53125 6.24755 6.61831 6.00345 6.78141C5.75935 6.94452 5.56909 7.17635 5.45674 7.44758C5.34439 7.71881 5.315 8.01727 5.37227 8.30521C5.42955 8.59315 5.57092 8.85764 5.77851 9.06524C5.98611 9.27283 6.2506 9.4142 6.53854 9.47148C6.82648 9.52875 7.12494 9.49936 7.39617 9.38701C7.66741 9.27466 7.89923 9.0844 8.06234 8.8403C8.22544 8.5962 8.3125 8.30921 8.3125 8.01562C8.31408 7.82025 8.27677 7.62652 8.20273 7.44571C8.1287 7.26491 8.01942 7.10064 7.88126 6.96249C7.74311 6.82433 7.57884 6.71506 7.39804 6.64102C7.21723 6.56698 7.0235 6.52967 6.82813 6.53125ZM12.1719 6.53125C11.8783 6.53125 11.5913 6.61831 11.3472 6.78141C11.1031 6.94452 10.9128 7.17635 10.8005 7.44758C10.6881 7.71881 10.6587 8.01727 10.716 8.30521C10.7733 8.59315 10.9147 8.85764 11.1223 9.06524C11.3299 9.27283 11.5943 9.4142 11.8823 9.47148C12.1702 9.52875 12.4687 9.49936 12.7399 9.38701C13.0112 9.27466 13.243 9.0844 13.4061 8.8403C13.5692 8.5962 13.6563 8.30921 13.6563 8.01562C13.6578 7.82025 13.6205 7.62652 13.5465 7.44571C13.4724 7.26491 13.3632 7.10064 13.225 6.96249C13.0869 6.82433 12.9226 6.71506 12.7418 6.64102C12.561 6.56698 12.3672 6.52967 12.1719 6.53125Z" fill="white"/>
<path id="Vector_2" d="M16.3934 7.71875C16.5436 8.30071 16.6214 8.89898 16.625 9.5C16.625 10.9092 16.2071 12.2867 15.4242 13.4584C14.6413 14.6301 13.5285 15.5434 12.2266 16.0826C10.9247 16.6219 9.4921 16.763 8.10998 16.4881C6.72787 16.2132 5.45831 15.5346 4.46186 14.5381C3.46542 13.5417 2.78682 12.2721 2.5119 10.89C2.23699 9.5079 2.37808 8.0753 2.91736 6.77338C3.45663 5.47146 4.36986 4.35868 5.54156 3.57578C6.71326 2.79287 8.09081 2.375 9.5 2.375V1.1875C7.7793 1.18691 6.10082 1.72032 4.69614 2.71414C3.29145 3.70796 2.2298 5.1132 1.65764 6.73599C1.08549 8.35879 1.03104 10.1191 1.5018 11.7742C1.97256 13.4292 2.94533 14.8974 4.28591 15.9762C5.62648 17.0549 7.26879 17.691 8.98623 17.7968C10.7037 17.9025 12.4116 17.4727 13.8744 16.5666C15.3372 15.6605 16.4828 14.3228 17.1531 12.738C17.8233 11.1532 17.9853 9.39948 17.6166 7.71875H16.3934Z" fill="white"/>
</g>
</svg>
