<svg preserveAspectRatio="none" width="100%" height="100%" overflow="visible" style="display: block;" viewBox="0 0 13 14" fill="none" xmlns="http://www.w3.org/2000/svg">
<path id="Vector" d="M10.8332 2.48644e-07C11.1685 -8.41114e-06 11.4992 0.0789974 11.7993 0.2308C12.0994 0.382602 12.3607 0.603059 12.5626 0.874819C12.7646 1.14658 12.9017 1.46223 12.9631 1.79692C13.0245 2.13161 13.0086 2.47621 12.9167 2.8036C12.8247 3.131 12.6591 3.43225 12.433 3.68364C12.2069 3.93503 11.9265 4.12972 11.6137 4.25236C11.301 4.375 10.9645 4.42227 10.6307 4.39042C10.2969 4.35858 9.97489 4.24851 9.69009 4.06886C9.66744 4.08394 9.64404 4.09783 9.61998 4.11046L4.33134 6.8945C4.33439 6.96487 4.33439 7.03534 4.33134 7.10571L4.34158 7.11211L9.39624 10.1538C9.77405 9.81361 10.257 9.61815 10.7616 9.60114C11.2663 9.58414 11.7609 9.74666 12.1601 10.0606C12.5593 10.3746 12.838 10.8203 12.948 11.3207C13.058 11.8211 12.9924 12.3448 12.7625 12.8014C12.5327 13.2579 12.1531 13.6186 11.6892 13.8211C11.2253 14.0236 10.7064 14.0553 10.222 13.9105C9.7376 13.7658 9.3182 13.4538 9.03624 13.0285C8.75429 12.6032 8.62749 12.0912 8.67775 11.581L3.67982 8.57453C3.37451 8.87715 2.98801 9.0815 2.56879 9.16194C2.14957 9.24239 1.7163 9.19535 1.3233 9.02674C0.930299 8.85812 0.595073 8.57542 0.359662 8.2141C0.124252 7.85279 -0.00086442 7.42893 4.49531e-06 6.99569C0.000873411 6.56245 0.127689 6.13911 0.364547 5.77877C0.601405 5.41843 0.937762 5.13712 1.33143 4.97013C1.72511 4.80314 2.15857 4.7579 2.57746 4.84008C2.99635 4.92226 3.38203 5.1282 3.68612 5.43208L8.73998 2.77124C8.65364 2.44512 8.64239 2.10319 8.7071 1.77194C8.77181 1.44069 8.91074 1.12902 9.11314 0.861062C9.31554 0.593105 9.57597 0.376061 9.87425 0.226742C10.1725 0.0774239 10.5007 -0.000160293 10.8332 2.48644e-07Z" fill="#6A6A6A"/>
</svg>
