<svg preserveAspectRatio="none" width="100%" height="100%" overflow="visible" style="display: block;" viewBox="0 0 15.8399 17.5999" fill="none" xmlns="http://www.w3.org/2000/svg">
<path id="Vector" d="M13.2002 0.44043C13.818 0.440492 14.329 0.651261 14.7588 1.08105C15.1886 1.51085 15.4003 2.02183 15.4004 2.63965C15.4004 3.25761 15.1887 3.76934 14.7588 4.19922C14.329 4.62891 13.818 4.83978 13.2002 4.83984C12.9015 4.83984 12.6274 4.78697 12.375 4.68457C12.1154 4.57919 11.8901 4.4361 11.6963 4.25488L11.457 4.03125L11.1738 4.19629L4.99219 7.80371L4.69727 7.97656L4.79102 8.30469C4.81322 8.38241 4.82599 8.4531 4.83105 8.5166C4.8375 8.59749 4.84038 8.69108 4.83984 8.79785C4.83929 8.90725 4.83581 9.00439 4.83008 9.08984C4.82605 9.14994 4.81483 9.21625 4.79297 9.28906L4.69238 9.62109L4.99219 9.7959L11.1738 13.4043L11.457 13.5693L11.6973 13.3447C11.8909 13.1632 12.1158 13.0197 12.375 12.915C12.5643 12.8386 12.7657 12.7904 12.9805 12.7705L13.2002 12.7598C13.818 12.7598 14.329 12.9716 14.7588 13.4014C15.1886 13.8312 15.4004 14.3421 15.4004 14.96C15.4004 15.5779 15.1886 16.0887 14.7588 16.5186C14.329 16.9484 13.818 17.1601 13.2002 17.1602C12.5822 17.1602 12.0705 16.9484 11.6406 16.5186C11.211 16.0888 11 15.5777 11 14.96C11 14.9082 11.0162 14.7355 11.0615 14.4033L11.1016 14.1123L10.8477 13.9639L4.66602 10.3555L4.38281 10.1904L4.14258 10.415C3.94881 10.5966 3.7242 10.7404 3.46484 10.8457C3.21269 10.948 2.93908 11.0005 2.64062 11H2.63965C2.02183 10.9999 1.51085 10.7882 1.08105 10.3584C0.651338 9.92857 0.44043 9.41766 0.44043 8.7998C0.440462 8.18195 0.651275 7.67104 1.08105 7.24121C1.51085 6.81141 2.02183 6.59969 2.63965 6.59961C2.93833 6.59961 3.21244 6.65248 3.46484 6.75488C3.7246 6.86029 3.94965 7.00425 4.14355 7.18555L4.38281 7.40918L4.66602 7.24414L10.8477 3.63574L11.1426 3.46387L11.0488 3.13477C11.0268 3.05769 11.0143 2.98846 11.0098 2.92676C11.0037 2.84435 11.0006 2.74886 11 2.63965C11.0001 2.02192 11.2109 1.51082 11.6406 1.08105C12.0705 0.651177 12.5822 0.44043 13.2002 0.44043Z" fill="#787878" stroke="#787878" stroke-width="0.879995"/>
</svg>
