<svg preserveAspectRatio="none" width="100%" height="100%" overflow="visible" style="display: block;" viewBox="0 0 65.0032 57" fill="none" xmlns="http://www.w3.org/2000/svg">
<g id="icon_no data" clip-path="url(#clip0_0_45)">
<path id="Vector" d="M0.470076 56.6209L32.066 38.5001L55.6815 56.53" stroke="black" stroke-width="0.757878" stroke-linecap="round" stroke-linejoin="round"/>
<path id="Vector_2" d="M9.05689 20.3794L41.7517 0.469973L64.2759 20.3794" stroke="black" stroke-width="0.757878" stroke-miterlimit="10"/>
<path id="Vector_3" d="M8.84463 20.3792C8.63242 20.3792 8.45053 20.5232 8.40506 20.7355L0.470076 56.621L55.6739 56.53L64.6169 20.6672C64.6548 20.5157 64.5411 20.3717 64.3895 20.3717" stroke="black" stroke-width="0.757878" stroke-miterlimit="10"/>
<path id="Vector_4" d="M64.2757 20.3794C64.3894 20.3794 64.4273 20.531 64.3287 20.5841L32.0659 38.5003L8.93543 20.7281C8.78386 20.6144 8.86722 20.3794 9.05669 20.3794" stroke="black" stroke-width="0.757878" stroke-miterlimit="10"/>
<g id="Vector_5">
<path d="M32.3468 30.5671C31.307 29.6536 30.2955 28.648 28.9019 28.2939C26.6737 27.7274 24.5516 27.9469 22.6064 29.2995C20.7672 30.5741 20.5126 32.4932 20.647 34.3415C20.9158 38.0664 23.1652 40.8777 25.832 43.3775C27.4448 44.8929 29.1778 46.2738 31.0311 47.5272C31.9436 48.1433 32.6085 48.1717 33.5564 47.5272C37.0013 45.1974 40.1632 42.549 42.3843 39.1144C43.9264 36.728 44.5842 33.952 43.4807 31.1407C42.7946 29.3915 40.5593 28.1806 38.7555 28.0319C36.1878 27.8194 34.1082 28.6692 32.4671 30.56" fill="#494949"/>
<path d="M32.3468 30.5671C31.307 29.6536 30.2955 28.648 28.9019 28.2939C26.6737 27.7274 24.5516 27.9469 22.6064 29.2995C20.7672 30.5741 20.5126 32.4932 20.647 34.3415C20.9158 38.0664 23.1652 40.8777 25.832 43.3775C27.4448 44.8929 29.1778 46.2738 31.0311 47.5272C31.9436 48.1433 32.6085 48.1717 33.5564 47.5272C37.0013 45.1974 40.1632 42.549 42.3843 39.1144C43.9264 36.728 44.5842 33.952 43.4807 31.1407C42.7946 29.3915 40.5593 28.1806 38.7555 28.0319C36.1878 27.8194 34.1082 28.6692 32.4671 30.56" stroke="black" stroke-width="0.685671" stroke-linecap="round" stroke-linejoin="round"/>
</g>
</g>
<defs>
<clipPath id="clip0_0_45">
<rect width="65.0032" height="57" fill="white"/>
</clipPath>
</defs>
</svg>
