<svg preserveAspectRatio="none" width="100%" height="100%" overflow="visible" style="display: block;" viewBox="0 0 14.9092 14.909" fill="none" xmlns="http://www.w3.org/2000/svg">
<path id="Vector" d="M13.8348 3.84684C14.2025 3.47924 14.4091 2.98062 14.4092 2.46068C14.4092 1.94074 14.2028 1.44207 13.8352 1.07437C13.4675 0.706673 12.9689 0.500065 12.449 0.5C11.9291 0.499935 11.4304 0.706417 11.0627 1.07402L1.781 10.3578C1.61953 10.5188 1.50011 10.717 1.43327 10.935L0.514559 13.9617C0.496585 14.0218 0.495228 14.0857 0.510631 14.1466C0.526034 14.2074 0.557623 14.263 0.602046 14.3073C0.64647 14.3517 0.702071 14.3832 0.76295 14.3985C0.82383 14.4138 0.887717 14.4123 0.947834 14.3943L3.97519 13.4763C4.19299 13.41 4.3912 13.2913 4.55243 13.1306L13.8348 3.84684Z" stroke="#A5A5A5" stroke-linecap="round" stroke-linejoin="round"/>
</svg>
